<svg width="1363" height="163" viewBox="0 0 1363 163" fill="none" xmlns="http://www.w3.org/2000/svg">
<path d="M0 15C0 6.71573 6.71573 0 15 0H37V163H15C6.71573 163 0 156.284 0 148V15Z" fill="#111318"/>
<rect width="1097" height="163" transform="translate(37)" fill="#F0F0F0"/>
<path d="M101.906 53.9219L94.3945 51.2383V48.0859L104.602 52.375V54.6367L101.906 53.9219ZM94.3945 56.1719L101.918 53.4297L104.602 52.7852V55.0352L94.3945 59.3242V56.1719ZM124.277 50.8867V53.6289H115.371V50.8867H124.277ZM116.414 43.9375V61H112.898V43.9375H116.414ZM126.785 43.9375V61H123.281V43.9375H126.785ZM133.195 48.3203V61H129.809V48.3203H133.195ZM129.598 45.0156C129.598 44.5234 129.77 44.1172 130.113 43.7969C130.457 43.4766 130.918 43.3164 131.496 43.3164C132.066 43.3164 132.523 43.4766 132.867 43.7969C133.219 44.1172 133.395 44.5234 133.395 45.0156C133.395 45.5078 133.219 45.9141 132.867 46.2344C132.523 46.5547 132.066 46.7148 131.496 46.7148C130.918 46.7148 130.457 46.5547 130.113 46.2344C129.77 45.9141 129.598 45.5078 129.598 45.0156ZM144.012 48.3203H147.07V60.5781C147.07 61.7344 146.812 62.7148 146.297 63.5195C145.789 64.332 145.078 64.9453 144.164 65.3594C143.25 65.7812 142.188 65.9922 140.977 65.9922C140.445 65.9922 139.883 65.9219 139.289 65.7812C138.703 65.6406 138.141 65.4219 137.602 65.125C137.07 64.8281 136.625 64.4531 136.266 64L137.754 62.0078C138.145 62.4609 138.598 62.8125 139.113 63.0625C139.629 63.3203 140.199 63.4492 140.824 63.4492C141.434 63.4492 141.949 63.3359 142.371 63.1094C142.793 62.8906 143.117 62.5664 143.344 62.1367C143.57 61.7148 143.684 61.2031 143.684 60.6016V51.25L144.012 48.3203ZM135.48 54.8125V54.5664C135.48 53.5977 135.598 52.7188 135.832 51.9297C136.074 51.1328 136.414 50.4492 136.852 49.8789C137.297 49.3086 137.836 48.8672 138.469 48.5547C139.102 48.2422 139.816 48.0859 140.613 48.0859C141.457 48.0859 142.164 48.2422 142.734 48.5547C143.305 48.8672 143.773 49.3125 144.141 49.8906C144.508 50.4609 144.793 51.1367 144.996 51.918C145.207 52.6914 145.371 53.5391 145.488 54.4609V55C145.371 55.8828 145.195 56.7031 144.961 57.4609C144.727 58.2188 144.418 58.8828 144.035 59.4531C143.652 60.0156 143.176 60.4531 142.605 60.7656C142.043 61.0781 141.371 61.2344 140.59 61.2344C139.809 61.2344 139.102 61.0742 138.469 60.7539C137.844 60.4336 137.309 59.9844 136.863 59.4062C136.418 58.8281 136.074 58.1484 135.832 57.3672C135.598 56.5859 135.48 55.7344 135.48 54.8125ZM138.855 54.5664V54.8125C138.855 55.3359 138.906 55.8242 139.008 56.2773C139.109 56.7305 139.266 57.1328 139.477 57.4844C139.695 57.8281 139.965 58.0977 140.285 58.293C140.613 58.4805 141 58.5742 141.445 58.5742C142.062 58.5742 142.566 58.4453 142.957 58.1875C143.348 57.9219 143.641 57.5586 143.836 57.0977C144.031 56.6367 144.145 56.1055 144.176 55.5039V53.9688C144.16 53.4766 144.094 53.0352 143.977 52.6445C143.859 52.2461 143.695 51.9062 143.484 51.625C143.273 51.3438 143 51.125 142.664 50.9688C142.328 50.8125 141.93 50.7344 141.469 50.7344C141.023 50.7344 140.637 50.8359 140.309 51.0391C139.988 51.2344 139.719 51.5039 139.5 51.8477C139.289 52.1914 139.129 52.5977 139.02 53.0664C138.91 53.5273 138.855 54.0273 138.855 54.5664ZM152.988 43V61H149.613V43H152.988ZM152.508 54.2148H151.582C151.59 53.332 151.707 52.5195 151.934 51.7773C152.16 51.0273 152.484 50.3789 152.906 49.832C153.328 49.2773 153.832 48.8477 154.418 48.543C155.012 48.2383 155.668 48.0859 156.387 48.0859C157.012 48.0859 157.578 48.1758 158.086 48.3555C158.602 48.5273 159.043 48.8086 159.41 49.1992C159.785 49.582 160.074 50.0859 160.277 50.7109C160.48 51.3359 160.582 52.0938 160.582 52.9844V61H157.184V52.9609C157.184 52.3984 157.102 51.957 156.938 51.6367C156.781 51.3086 156.551 51.0781 156.246 50.9453C155.949 50.8047 155.582 50.7344 155.145 50.7344C154.66 50.7344 154.246 50.8242 153.902 51.0039C153.566 51.1836 153.297 51.4336 153.094 51.7539C152.891 52.0664 152.742 52.4336 152.648 52.8555C152.555 53.2773 152.508 53.7305 152.508 54.2148ZM166.711 43V61H163.324V43H166.711ZM173.062 48.3203V61H169.676V48.3203H173.062ZM169.465 45.0156C169.465 44.5234 169.637 44.1172 169.98 43.7969C170.324 43.4766 170.785 43.3164 171.363 43.3164C171.934 43.3164 172.391 43.4766 172.734 43.7969C173.086 44.1172 173.262 44.5234 173.262 45.0156C173.262 45.5078 173.086 45.9141 172.734 46.2344C172.391 46.5547 171.934 46.7148 171.363 46.7148C170.785 46.7148 170.324 46.5547 169.98 46.2344C169.637 45.9141 169.465 45.5078 169.465 45.0156ZM183.879 48.3203H186.938V60.5781C186.938 61.7344 186.68 62.7148 186.164 63.5195C185.656 64.332 184.945 64.9453 184.031 65.3594C183.117 65.7812 182.055 65.9922 180.844 65.9922C180.312 65.9922 179.75 65.9219 179.156 65.7812C178.57 65.6406 178.008 65.4219 177.469 65.125C176.938 64.8281 176.492 64.4531 176.133 64L177.621 62.0078C178.012 62.4609 178.465 62.8125 178.98 63.0625C179.496 63.3203 180.066 63.4492 180.691 63.4492C181.301 63.4492 181.816 63.3359 182.238 63.1094C182.66 62.8906 182.984 62.5664 183.211 62.1367C183.438 61.7148 183.551 61.2031 183.551 60.6016V51.25L183.879 48.3203ZM175.348 54.8125V54.5664C175.348 53.5977 175.465 52.7188 175.699 51.9297C175.941 51.1328 176.281 50.4492 176.719 49.8789C177.164 49.3086 177.703 48.8672 178.336 48.5547C178.969 48.2422 179.684 48.0859 180.48 48.0859C181.324 48.0859 182.031 48.2422 182.602 48.5547C183.172 48.8672 183.641 49.3125 184.008 49.8906C184.375 50.4609 184.66 51.1367 184.863 51.918C185.074 52.6914 185.238 53.5391 185.355 54.4609V55C185.238 55.8828 185.062 56.7031 184.828 57.4609C184.594 58.2188 184.285 58.8828 183.902 59.4531C183.52 60.0156 183.043 60.4531 182.473 60.7656C181.91 61.0781 181.238 61.2344 180.457 61.2344C179.676 61.2344 178.969 61.0742 178.336 60.7539C177.711 60.4336 177.176 59.9844 176.73 59.4062C176.285 58.8281 175.941 58.1484 175.699 57.3672C175.465 56.5859 175.348 55.7344 175.348 54.8125ZM178.723 54.5664V54.8125C178.723 55.3359 178.773 55.8242 178.875 56.2773C178.977 56.7305 179.133 57.1328 179.344 57.4844C179.562 57.8281 179.832 58.0977 180.152 58.293C180.48 58.4805 180.867 58.5742 181.312 58.5742C181.93 58.5742 182.434 58.4453 182.824 58.1875C183.215 57.9219 183.508 57.5586 183.703 57.0977C183.898 56.6367 184.012 56.1055 184.043 55.5039V53.9688C184.027 53.4766 183.961 53.0352 183.844 52.6445C183.727 52.2461 183.562 51.9062 183.352 51.625C183.141 51.3438 182.867 51.125 182.531 50.9688C182.195 50.8125 181.797 50.7344 181.336 50.7344C180.891 50.7344 180.504 50.8359 180.176 51.0391C179.855 51.2344 179.586 51.5039 179.367 51.8477C179.156 52.1914 178.996 52.5977 178.887 53.0664C178.777 53.5273 178.723 54.0273 178.723 54.5664ZM192.855 43V61H189.48V43H192.855ZM192.375 54.2148H191.449C191.457 53.332 191.574 52.5195 191.801 51.7773C192.027 51.0273 192.352 50.3789 192.773 49.832C193.195 49.2773 193.699 48.8477 194.285 48.543C194.879 48.2383 195.535 48.0859 196.254 48.0859C196.879 48.0859 197.445 48.1758 197.953 48.3555C198.469 48.5273 198.91 48.8086 199.277 49.1992C199.652 49.582 199.941 50.0859 200.145 50.7109C200.348 51.3359 200.449 52.0938 200.449 52.9844V61H197.051V52.9609C197.051 52.3984 196.969 51.957 196.805 51.6367C196.648 51.3086 196.418 51.0781 196.113 50.9453C195.816 50.8047 195.449 50.7344 195.012 50.7344C194.527 50.7344 194.113 50.8242 193.77 51.0039C193.434 51.1836 193.164 51.4336 192.961 51.7539C192.758 52.0664 192.609 52.4336 192.516 52.8555C192.422 53.2773 192.375 53.7305 192.375 54.2148ZM209.227 48.3203V50.7109H201.844V48.3203H209.227ZM203.672 45.1914H207.047V57.1797C207.047 57.5469 207.094 57.8281 207.188 58.0234C207.289 58.2188 207.438 58.3555 207.633 58.4336C207.828 58.5039 208.074 58.5391 208.371 58.5391C208.582 58.5391 208.77 58.5312 208.934 58.5156C209.105 58.4922 209.25 58.4688 209.367 58.4453L209.379 60.9297C209.09 61.0234 208.777 61.0977 208.441 61.1523C208.105 61.207 207.734 61.2344 207.328 61.2344C206.586 61.2344 205.938 61.1133 205.383 60.8711C204.836 60.6211 204.414 60.2227 204.117 59.6758C203.82 59.1289 203.672 58.4102 203.672 57.5195V45.1914ZM215.098 43.9375V61H211.594V43.9375H215.098ZM227.66 58.4688L232.277 62.125L230.062 64.0469L225.516 60.3906L227.66 58.4688ZM232.395 52.0703V52.8789C232.395 54.1758 232.219 55.3398 231.867 56.3711C231.523 57.4023 231.027 58.2812 230.379 59.0078C229.73 59.7266 228.965 60.2773 228.082 60.6602C227.199 61.043 226.219 61.2344 225.141 61.2344C224.07 61.2344 223.09 61.043 222.199 60.6602C221.309 60.2773 220.539 59.7266 219.891 59.0078C219.242 58.2812 218.738 57.4023 218.379 56.3711C218.027 55.3398 217.852 54.1758 217.852 52.8789V52.0703C217.852 50.7656 218.027 49.6016 218.379 48.5781C218.738 47.5469 219.238 46.668 219.879 45.9414C220.52 45.2148 221.285 44.6602 222.176 44.2773C223.066 43.8945 224.047 43.7031 225.117 43.7031C226.195 43.7031 227.176 43.8945 228.059 44.2773C228.949 44.6602 229.719 45.2148 230.367 45.9414C231.016 46.668 231.516 47.5469 231.867 48.5781C232.219 49.6016 232.395 50.7656 232.395 52.0703ZM228.844 52.8789V52.0469C228.844 51.1406 228.758 50.3438 228.586 49.6562C228.422 48.9688 228.18 48.3906 227.859 47.9219C227.547 47.4531 227.16 47.1016 226.699 46.8672C226.238 46.625 225.711 46.5039 225.117 46.5039C224.523 46.5039 223.996 46.625 223.535 46.8672C223.074 47.1016 222.688 47.4531 222.375 47.9219C222.062 48.3906 221.824 48.9688 221.66 49.6562C221.496 50.3438 221.414 51.1406 221.414 52.0469V52.8789C221.414 53.7773 221.496 54.5742 221.66 55.2695C221.824 55.957 222.062 56.5391 222.375 57.0156C222.695 57.4844 223.086 57.8398 223.547 58.082C224.016 58.3242 224.547 58.4453 225.141 58.4453C225.734 58.4453 226.258 58.3242 226.711 58.082C227.172 57.8398 227.559 57.4844 227.871 57.0156C228.191 56.5391 228.434 55.957 228.598 55.2695C228.762 54.5742 228.844 53.7773 228.844 52.8789Z" fill="#888888"/>
<path d="M109.219 107.422H100.734V101.07H109.219C110.375 101.07 111.312 100.875 112.031 100.484C112.75 100.094 113.273 99.5547 113.602 98.8672C113.945 98.1641 114.117 97.375 114.117 96.5C114.117 95.5625 113.945 94.6953 113.602 93.8984C113.273 93.1016 112.75 92.4609 112.031 91.9766C111.312 91.4766 110.375 91.2266 109.219 91.2266H103.828V119H95.6016V84.875H109.219C111.953 84.875 114.305 85.375 116.273 86.375C118.258 87.375 119.781 88.75 120.844 90.5C121.906 92.2344 122.438 94.2188 122.438 96.4531C122.438 98.6562 121.906 100.578 120.844 102.219C119.781 103.859 118.258 105.141 116.273 106.062C114.305 106.969 111.953 107.422 109.219 107.422ZM134.461 99.9219V119H126.562V93.6406H133.945L134.461 99.9219ZM141.961 93.4531L141.82 100.789C141.508 100.758 141.086 100.719 140.555 100.672C140.023 100.625 139.578 100.602 139.219 100.602C138.297 100.602 137.5 100.711 136.828 100.93C136.172 101.133 135.625 101.445 135.188 101.867C134.766 102.273 134.453 102.789 134.25 103.414C134.062 104.039 133.977 104.766 133.992 105.594L132.562 104.656C132.562 102.953 132.727 101.406 133.055 100.016C133.398 98.6094 133.883 97.3984 134.508 96.3828C135.133 95.3516 135.891 94.5625 136.781 94.0156C137.672 93.4531 138.672 93.1719 139.781 93.1719C140.172 93.1719 140.555 93.1953 140.93 93.2422C141.32 93.2891 141.664 93.3594 141.961 93.4531ZM142.852 106.578V106.086C142.852 104.227 143.117 102.516 143.648 100.953C144.18 99.375 144.961 98.0078 145.992 96.8516C147.023 95.6953 148.297 94.7969 149.812 94.1562C151.328 93.5 153.078 93.1719 155.062 93.1719C157.062 93.1719 158.82 93.5 160.336 94.1562C161.867 94.7969 163.148 95.6953 164.18 96.8516C165.211 98.0078 165.992 99.375 166.523 100.953C167.055 102.516 167.32 104.227 167.32 106.086V106.578C167.32 108.422 167.055 110.133 166.523 111.711C165.992 113.273 165.211 114.641 164.18 115.812C163.148 116.969 161.875 117.867 160.359 118.508C158.844 119.148 157.094 119.469 155.109 119.469C153.125 119.469 151.367 119.148 149.836 118.508C148.305 117.867 147.023 116.969 145.992 115.812C144.961 114.641 144.18 113.273 143.648 111.711C143.117 110.133 142.852 108.422 142.852 106.578ZM150.75 106.086V106.578C150.75 107.531 150.82 108.422 150.961 109.25C151.102 110.078 151.336 110.805 151.664 111.43C151.992 112.039 152.438 112.516 153 112.859C153.562 113.203 154.266 113.375 155.109 113.375C155.938 113.375 156.625 113.203 157.172 112.859C157.734 112.516 158.18 112.039 158.508 111.43C158.836 110.805 159.07 110.078 159.211 109.25C159.352 108.422 159.422 107.531 159.422 106.578V106.086C159.422 105.164 159.352 104.297 159.211 103.484C159.07 102.656 158.836 101.93 158.508 101.305C158.18 100.664 157.734 100.164 157.172 99.8047C156.609 99.4453 155.906 99.2656 155.062 99.2656C154.234 99.2656 153.539 99.4453 152.977 99.8047C152.43 100.164 151.992 100.664 151.664 101.305C151.336 101.93 151.102 102.656 150.961 103.484C150.82 104.297 150.75 105.164 150.75 106.086ZM171.422 93.6406H179.344V119.82C179.344 121.852 178.953 123.562 178.172 124.953C177.391 126.359 176.273 127.422 174.82 128.141C173.367 128.875 171.633 129.242 169.617 129.242C168.945 129.242 168.328 129.211 167.766 129.148C167.188 129.102 166.555 129 165.867 128.844V122.867C166.273 122.93 166.648 122.977 166.992 123.008C167.336 123.055 167.711 123.078 168.117 123.078C168.836 123.078 169.438 122.961 169.922 122.727C170.406 122.492 170.773 122.133 171.023 121.648C171.289 121.164 171.422 120.555 171.422 119.82V93.6406ZM170.836 87.1016C170.836 85.9766 171.242 85.0547 172.055 84.3359C172.867 83.6172 173.922 83.2578 175.219 83.2578C176.516 83.2578 177.57 83.6172 178.383 84.3359C179.195 85.0547 179.602 85.9766 179.602 87.1016C179.602 88.2266 179.195 89.1484 178.383 89.8672C177.57 90.5859 176.516 90.9453 175.219 90.9453C173.922 90.9453 172.867 90.5859 172.055 89.8672C171.242 89.1484 170.836 88.2266 170.836 87.1016ZM196.102 119.469C194.039 119.469 192.195 119.148 190.57 118.508C188.945 117.852 187.57 116.953 186.445 115.812C185.336 114.672 184.484 113.359 183.891 111.875C183.312 110.391 183.023 108.82 183.023 107.164V106.273C183.023 104.414 183.281 102.695 183.797 101.117C184.312 99.5234 185.078 98.1328 186.094 96.9453C187.109 95.7578 188.383 94.8359 189.914 94.1797C191.445 93.5078 193.227 93.1719 195.258 93.1719C197.055 93.1719 198.664 93.4609 200.086 94.0391C201.508 94.6172 202.711 95.4453 203.695 96.5234C204.695 97.6016 205.453 98.9062 205.969 100.438C206.5 101.969 206.766 103.688 206.766 105.594V108.805H186.047V103.859H199.055V103.25C199.07 102.406 198.922 101.688 198.609 101.094C198.312 100.5 197.875 100.047 197.297 99.7344C196.719 99.4219 196.016 99.2656 195.188 99.2656C194.328 99.2656 193.617 99.4531 193.055 99.8281C192.508 100.203 192.078 100.719 191.766 101.375C191.469 102.016 191.258 102.758 191.133 103.602C191.008 104.445 190.945 105.336 190.945 106.273V107.164C190.945 108.102 191.07 108.953 191.32 109.719C191.586 110.484 191.961 111.141 192.445 111.688C192.945 112.219 193.539 112.633 194.227 112.93C194.93 113.227 195.727 113.375 196.617 113.375C197.695 113.375 198.758 113.172 199.805 112.766C200.852 112.359 201.75 111.688 202.5 110.75L206.086 115.016C205.57 115.75 204.836 116.461 203.883 117.148C202.945 117.836 201.82 118.398 200.508 118.836C199.195 119.258 197.727 119.469 196.102 119.469ZM220.688 113.375C221.422 113.375 222.047 113.242 222.562 112.977C223.094 112.695 223.492 112.305 223.758 111.805C224.039 111.289 224.172 110.672 224.156 109.953H231.586C231.602 111.859 231.133 113.531 230.18 114.969C229.242 116.391 227.961 117.5 226.336 118.297C224.727 119.078 222.906 119.469 220.875 119.469C218.891 119.469 217.156 119.148 215.672 118.508C214.188 117.852 212.945 116.945 211.945 115.789C210.961 114.617 210.219 113.25 209.719 111.688C209.234 110.125 208.992 108.43 208.992 106.602V106.062C208.992 104.234 209.234 102.539 209.719 100.977C210.219 99.3984 210.961 98.0312 211.945 96.875C212.945 95.7031 214.18 94.7969 215.648 94.1562C217.133 93.5 218.859 93.1719 220.828 93.1719C222.938 93.1719 224.797 93.5703 226.406 94.3672C228.031 95.1641 229.305 96.3203 230.227 97.8359C231.148 99.3516 231.602 101.188 231.586 103.344H224.156C224.172 102.578 224.055 101.891 223.805 101.281C223.555 100.672 223.164 100.188 222.633 99.8281C222.117 99.4531 221.453 99.2656 220.641 99.2656C219.828 99.2656 219.172 99.4453 218.672 99.8047C218.172 100.164 217.789 100.664 217.523 101.305C217.273 101.93 217.102 102.648 217.008 103.461C216.93 104.273 216.891 105.141 216.891 106.062V106.602C216.891 107.539 216.93 108.422 217.008 109.25C217.102 110.062 217.281 110.781 217.547 111.406C217.812 112.016 218.195 112.5 218.695 112.859C219.195 113.203 219.859 113.375 220.688 113.375ZM248.32 93.6406V99.125H233.039V93.6406H248.32ZM236.25 87.3359H244.148V110.727C244.148 111.398 244.227 111.922 244.383 112.297C244.539 112.656 244.805 112.914 245.18 113.07C245.57 113.211 246.086 113.281 246.727 113.281C247.18 113.281 247.555 113.273 247.852 113.258C248.148 113.227 248.43 113.188 248.695 113.141V118.789C248.023 119.008 247.32 119.172 246.586 119.281C245.852 119.406 245.07 119.469 244.242 119.469C242.555 119.469 241.109 119.203 239.906 118.672C238.719 118.141 237.812 117.305 237.188 116.164C236.562 115.023 236.25 113.539 236.25 111.711V87.3359ZM292.664 101.258V102.641C292.664 105.25 292.297 107.594 291.562 109.672C290.844 111.734 289.82 113.5 288.492 114.969C287.164 116.422 285.594 117.539 283.781 118.32C281.969 119.086 279.969 119.469 277.781 119.469C275.578 119.469 273.562 119.086 271.734 118.32C269.922 117.539 268.344 116.422 267 114.969C265.672 113.5 264.641 111.734 263.906 109.672C263.188 107.594 262.828 105.25 262.828 102.641V101.258C262.828 98.6484 263.188 96.3047 263.906 94.2266C264.641 92.1484 265.664 90.3828 266.977 88.9297C268.305 87.4609 269.875 86.3438 271.688 85.5781C273.516 84.7969 275.531 84.4062 277.734 84.4062C279.922 84.4062 281.922 84.7969 283.734 85.5781C285.562 86.3438 287.141 87.4609 288.469 88.9297C289.797 90.3828 290.828 92.1484 291.562 94.2266C292.297 96.3047 292.664 98.6484 292.664 101.258ZM284.32 102.641V101.211C284.32 99.5234 284.172 98.0391 283.875 96.7578C283.594 95.4609 283.172 94.375 282.609 93.5C282.047 92.625 281.352 91.9688 280.523 91.5312C279.711 91.0781 278.781 90.8516 277.734 90.8516C276.641 90.8516 275.688 91.0781 274.875 91.5312C274.062 91.9688 273.383 92.625 272.836 93.5C272.289 94.375 271.875 95.4609 271.594 96.7578C271.328 98.0391 271.195 99.5234 271.195 101.211V102.641C271.195 104.312 271.328 105.797 271.594 107.094C271.875 108.375 272.289 109.461 272.836 110.352C273.398 111.242 274.086 111.914 274.898 112.367C275.727 112.82 276.688 113.047 277.781 113.047C278.828 113.047 279.758 112.82 280.57 112.367C281.383 111.914 282.062 111.242 282.609 110.352C283.172 109.461 283.594 108.375 283.875 107.094C284.172 105.797 284.32 104.312 284.32 102.641ZM305.695 113.586L310.688 93.6406H319.008L310.711 119H305.789L305.695 113.586ZM302.742 93.6406L307.664 113.586L307.617 119H302.672L294.398 93.6406H302.742ZM333.305 119.469C331.242 119.469 329.398 119.148 327.773 118.508C326.148 117.852 324.773 116.953 323.648 115.812C322.539 114.672 321.688 113.359 321.094 111.875C320.516 110.391 320.227 108.82 320.227 107.164V106.273C320.227 104.414 320.484 102.695 321 101.117C321.516 99.5234 322.281 98.1328 323.297 96.9453C324.312 95.7578 325.586 94.8359 327.117 94.1797C328.648 93.5078 330.43 93.1719 332.461 93.1719C334.258 93.1719 335.867 93.4609 337.289 94.0391C338.711 94.6172 339.914 95.4453 340.898 96.5234C341.898 97.6016 342.656 98.9062 343.172 100.438C343.703 101.969 343.969 103.688 343.969 105.594V108.805H323.25V103.859H336.258V103.25C336.273 102.406 336.125 101.688 335.812 101.094C335.516 100.5 335.078 100.047 334.5 99.7344C333.922 99.4219 333.219 99.2656 332.391 99.2656C331.531 99.2656 330.82 99.4531 330.258 99.8281C329.711 100.203 329.281 100.719 328.969 101.375C328.672 102.016 328.461 102.758 328.336 103.602C328.211 104.445 328.148 105.336 328.148 106.273V107.164C328.148 108.102 328.273 108.953 328.523 109.719C328.789 110.484 329.164 111.141 329.648 111.688C330.148 112.219 330.742 112.633 331.43 112.93C332.133 113.227 332.93 113.375 333.82 113.375C334.898 113.375 335.961 113.172 337.008 112.766C338.055 112.359 338.953 111.688 339.703 110.75L343.289 115.016C342.773 115.75 342.039 116.461 341.086 117.148C340.148 117.836 339.023 118.398 337.711 118.836C336.398 119.258 334.93 119.469 333.305 119.469ZM355.148 99.9219V119H347.25V93.6406H354.633L355.148 99.9219ZM362.648 93.4531L362.508 100.789C362.195 100.758 361.773 100.719 361.242 100.672C360.711 100.625 360.266 100.602 359.906 100.602C358.984 100.602 358.188 100.711 357.516 100.93C356.859 101.133 356.312 101.445 355.875 101.867C355.453 102.273 355.141 102.789 354.938 103.414C354.75 104.039 354.664 104.766 354.68 105.594L353.25 104.656C353.25 102.953 353.414 101.406 353.742 100.016C354.086 98.6094 354.57 97.3984 355.195 96.3828C355.82 95.3516 356.578 94.5625 357.469 94.0156C358.359 93.4531 359.359 93.1719 360.469 93.1719C360.859 93.1719 361.242 93.1953 361.617 93.2422C362.008 93.2891 362.352 93.3594 362.648 93.4531ZM374.93 113.586L379.922 93.6406H388.242L379.945 119H375.023L374.93 113.586ZM371.977 93.6406L376.898 113.586L376.852 119H371.906L363.633 93.6406H371.977ZM398.93 93.6406V119H391.008V93.6406H398.93ZM390.539 87.1016C390.539 85.9766 390.945 85.0547 391.758 84.3359C392.57 83.6172 393.625 83.2578 394.922 83.2578C396.219 83.2578 397.273 83.6172 398.086 84.3359C398.898 85.0547 399.305 85.9766 399.305 87.1016C399.305 88.2266 398.898 89.1484 398.086 89.8672C397.273 90.5859 396.219 90.9453 394.922 90.9453C393.625 90.9453 392.57 90.5859 391.758 89.8672C390.945 89.1484 390.539 88.2266 390.539 87.1016ZM416.086 119.469C414.023 119.469 412.18 119.148 410.555 118.508C408.93 117.852 407.555 116.953 406.43 115.812C405.32 114.672 404.469 113.359 403.875 111.875C403.297 110.391 403.008 108.82 403.008 107.164V106.273C403.008 104.414 403.266 102.695 403.781 101.117C404.297 99.5234 405.062 98.1328 406.078 96.9453C407.094 95.7578 408.367 94.8359 409.898 94.1797C411.43 93.5078 413.211 93.1719 415.242 93.1719C417.039 93.1719 418.648 93.4609 420.07 94.0391C421.492 94.6172 422.695 95.4453 423.68 96.5234C424.68 97.6016 425.438 98.9062 425.953 100.438C426.484 101.969 426.75 103.688 426.75 105.594V108.805H406.031V103.859H419.039V103.25C419.055 102.406 418.906 101.688 418.594 101.094C418.297 100.5 417.859 100.047 417.281 99.7344C416.703 99.4219 416 99.2656 415.172 99.2656C414.312 99.2656 413.602 99.4531 413.039 99.8281C412.492 100.203 412.062 100.719 411.75 101.375C411.453 102.016 411.242 102.758 411.117 103.602C410.992 104.445 410.93 105.336 410.93 106.273V107.164C410.93 108.102 411.055 108.953 411.305 109.719C411.57 110.484 411.945 111.141 412.43 111.688C412.93 112.219 413.523 112.633 414.211 112.93C414.914 113.227 415.711 113.375 416.602 113.375C417.68 113.375 418.742 113.172 419.789 112.766C420.836 112.359 421.734 111.688 422.484 110.75L426.07 115.016C425.555 115.75 424.82 116.461 423.867 117.148C422.93 117.836 421.805 118.398 420.492 118.836C419.18 119.258 417.711 119.469 416.086 119.469ZM437.672 111.453L442.359 93.6406H447.305L445.547 102.57L440.906 119H436.945L437.672 111.453ZM435.82 93.6406L438.727 111.312L439.055 119H434.25L428.25 93.6406H435.82ZM451.477 110.938L454.406 93.6406H461.977L456.023 119H451.219L451.477 110.938ZM447.867 93.6406L452.602 111.406L453.328 119H449.32L444.773 102.617L443.086 93.6406H447.867Z" fill="black"/>
<path d="M1134 0H1348C1356.28 0 1363 6.71573 1363 15V148C1363 156.284 1356.28 163 1348 163H1134V0Z" fill="#0D59F2"/>
<path d="M1234.26 103.786H1262.74V109.357H1234.26V103.786ZM1239.96 114.929H1257.04V120.5H1239.96V114.929ZM1248.5 42.5C1240.95 42.5 1233.71 45.4349 1228.37 50.6592C1223.03 55.8834 1220.03 62.969 1220.03 70.3571C1219.84 74.4057 1220.63 78.4412 1222.34 82.1315C1224.05 85.8219 1226.64 89.0616 1229.88 91.5843C1232.73 94.175 1234.26 95.6514 1234.26 98.2143H1239.96C1239.96 93.0886 1236.8 90.2193 1233.72 87.4614C1231.06 85.4676 1228.94 82.8658 1227.55 79.8838C1226.15 76.9019 1225.53 73.6308 1225.72 70.3571C1225.72 64.4466 1228.12 58.7781 1232.39 54.5988C1236.67 50.4194 1242.46 48.0714 1248.5 48.0714C1254.54 48.0714 1260.33 50.4194 1264.61 54.5988C1268.88 58.7781 1271.28 64.4466 1271.28 70.3571C1271.47 73.6333 1270.84 76.9059 1269.44 79.888C1268.04 82.8701 1265.92 85.4706 1263.25 87.4614C1260.2 90.2471 1257.04 93.0329 1257.04 98.2143H1262.74C1262.74 95.6514 1264.25 94.175 1267.12 91.5564C1270.36 89.0381 1272.94 85.8031 1274.66 82.1176C1276.37 78.4321 1277.16 74.4014 1276.97 70.3571C1276.97 66.6989 1276.24 63.0765 1274.81 59.6967C1273.37 56.3169 1271.28 53.2459 1268.63 50.6592C1265.99 48.0724 1262.85 46.0205 1259.4 44.6205C1255.94 43.2205 1252.24 42.5 1248.5 42.5Z" fill="white"/>
</svg>
