<svg width="1363" height="163" viewBox="0 0 1363 163" fill="none" xmlns="http://www.w3.org/2000/svg">
<path d="M0 15C0 6.71573 6.71573 0 15 0H37V163H15C6.71573 163 0 156.284 0 148V15Z" fill="#111318"/>
<rect width="1097" height="163" transform="translate(37)" fill="#F0F0F0"/>
<path d="M101.906 53.9219L94.3945 51.2383V48.0859L104.602 52.375V54.6367L101.906 53.9219ZM94.3945 56.1719L101.918 53.4297L104.602 52.7852V55.0352L94.3945 59.3242V56.1719ZM124.277 50.8867V53.6289H115.371V50.8867H124.277ZM116.414 43.9375V61H112.898V43.9375H116.414ZM126.785 43.9375V61H123.281V43.9375H126.785ZM133.195 48.3203V61H129.809V48.3203H133.195ZM129.598 45.0156C129.598 44.5234 129.77 44.1172 130.113 43.7969C130.457 43.4766 130.918 43.3164 131.496 43.3164C132.066 43.3164 132.523 43.4766 132.867 43.7969C133.219 44.1172 133.395 44.5234 133.395 45.0156C133.395 45.5078 133.219 45.9141 132.867 46.2344C132.523 46.5547 132.066 46.7148 131.496 46.7148C130.918 46.7148 130.457 46.5547 130.113 46.2344C129.77 45.9141 129.598 45.5078 129.598 45.0156ZM144.012 48.3203H147.07V60.5781C147.07 61.7344 146.812 62.7148 146.297 63.5195C145.789 64.332 145.078 64.9453 144.164 65.3594C143.25 65.7812 142.188 65.9922 140.977 65.9922C140.445 65.9922 139.883 65.9219 139.289 65.7812C138.703 65.6406 138.141 65.4219 137.602 65.125C137.07 64.8281 136.625 64.4531 136.266 64L137.754 62.0078C138.145 62.4609 138.598 62.8125 139.113 63.0625C139.629 63.3203 140.199 63.4492 140.824 63.4492C141.434 63.4492 141.949 63.3359 142.371 63.1094C142.793 62.8906 143.117 62.5664 143.344 62.1367C143.57 61.7148 143.684 61.2031 143.684 60.6016V51.25L144.012 48.3203ZM135.48 54.8125V54.5664C135.48 53.5977 135.598 52.7188 135.832 51.9297C136.074 51.1328 136.414 50.4492 136.852 49.8789C137.297 49.3086 137.836 48.8672 138.469 48.5547C139.102 48.2422 139.816 48.0859 140.613 48.0859C141.457 48.0859 142.164 48.2422 142.734 48.5547C143.305 48.8672 143.773 49.3125 144.141 49.8906C144.508 50.4609 144.793 51.1367 144.996 51.918C145.207 52.6914 145.371 53.5391 145.488 54.4609V55C145.371 55.8828 145.195 56.7031 144.961 57.4609C144.727 58.2188 144.418 58.8828 144.035 59.4531C143.652 60.0156 143.176 60.4531 142.605 60.7656C142.043 61.0781 141.371 61.2344 140.59 61.2344C139.809 61.2344 139.102 61.0742 138.469 60.7539C137.844 60.4336 137.309 59.9844 136.863 59.4062C136.418 58.8281 136.074 58.1484 135.832 57.3672C135.598 56.5859 135.48 55.7344 135.48 54.8125ZM138.855 54.5664V54.8125C138.855 55.3359 138.906 55.8242 139.008 56.2773C139.109 56.7305 139.266 57.1328 139.477 57.4844C139.695 57.8281 139.965 58.0977 140.285 58.293C140.613 58.4805 141 58.5742 141.445 58.5742C142.062 58.5742 142.566 58.4453 142.957 58.1875C143.348 57.9219 143.641 57.5586 143.836 57.0977C144.031 56.6367 144.145 56.1055 144.176 55.5039V53.9688C144.16 53.4766 144.094 53.0352 143.977 52.6445C143.859 52.2461 143.695 51.9062 143.484 51.625C143.273 51.3438 143 51.125 142.664 50.9688C142.328 50.8125 141.93 50.7344 141.469 50.7344C141.023 50.7344 140.637 50.8359 140.309 51.0391C139.988 51.2344 139.719 51.5039 139.5 51.8477C139.289 52.1914 139.129 52.5977 139.02 53.0664C138.91 53.5273 138.855 54.0273 138.855 54.5664ZM152.988 43V61H149.613V43H152.988ZM152.508 54.2148H151.582C151.59 53.332 151.707 52.5195 151.934 51.7773C152.16 51.0273 152.484 50.3789 152.906 49.832C153.328 49.2773 153.832 48.8477 154.418 48.543C155.012 48.2383 155.668 48.0859 156.387 48.0859C157.012 48.0859 157.578 48.1758 158.086 48.3555C158.602 48.5273 159.043 48.8086 159.41 49.1992C159.785 49.582 160.074 50.0859 160.277 50.7109C160.48 51.3359 160.582 52.0938 160.582 52.9844V61H157.184V52.9609C157.184 52.3984 157.102 51.957 156.938 51.6367C156.781 51.3086 156.551 51.0781 156.246 50.9453C155.949 50.8047 155.582 50.7344 155.145 50.7344C154.66 50.7344 154.246 50.8242 153.902 51.0039C153.566 51.1836 153.297 51.4336 153.094 51.7539C152.891 52.0664 152.742 52.4336 152.648 52.8555C152.555 53.2773 152.508 53.7305 152.508 54.2148ZM166.711 43V61H163.324V43H166.711ZM173.062 48.3203V61H169.676V48.3203H173.062ZM169.465 45.0156C169.465 44.5234 169.637 44.1172 169.98 43.7969C170.324 43.4766 170.785 43.3164 171.363 43.3164C171.934 43.3164 172.391 43.4766 172.734 43.7969C173.086 44.1172 173.262 44.5234 173.262 45.0156C173.262 45.5078 173.086 45.9141 172.734 46.2344C172.391 46.5547 171.934 46.7148 171.363 46.7148C170.785 46.7148 170.324 46.5547 169.98 46.2344C169.637 45.9141 169.465 45.5078 169.465 45.0156ZM183.879 48.3203H186.938V60.5781C186.938 61.7344 186.68 62.7148 186.164 63.5195C185.656 64.332 184.945 64.9453 184.031 65.3594C183.117 65.7812 182.055 65.9922 180.844 65.9922C180.312 65.9922 179.75 65.9219 179.156 65.7812C178.57 65.6406 178.008 65.4219 177.469 65.125C176.938 64.8281 176.492 64.4531 176.133 64L177.621 62.0078C178.012 62.4609 178.465 62.8125 178.98 63.0625C179.496 63.3203 180.066 63.4492 180.691 63.4492C181.301 63.4492 181.816 63.3359 182.238 63.1094C182.66 62.8906 182.984 62.5664 183.211 62.1367C183.438 61.7148 183.551 61.2031 183.551 60.6016V51.25L183.879 48.3203ZM175.348 54.8125V54.5664C175.348 53.5977 175.465 52.7188 175.699 51.9297C175.941 51.1328 176.281 50.4492 176.719 49.8789C177.164 49.3086 177.703 48.8672 178.336 48.5547C178.969 48.2422 179.684 48.0859 180.48 48.0859C181.324 48.0859 182.031 48.2422 182.602 48.5547C183.172 48.8672 183.641 49.3125 184.008 49.8906C184.375 50.4609 184.66 51.1367 184.863 51.918C185.074 52.6914 185.238 53.5391 185.355 54.4609V55C185.238 55.8828 185.062 56.7031 184.828 57.4609C184.594 58.2188 184.285 58.8828 183.902 59.4531C183.52 60.0156 183.043 60.4531 182.473 60.7656C181.91 61.0781 181.238 61.2344 180.457 61.2344C179.676 61.2344 178.969 61.0742 178.336 60.7539C177.711 60.4336 177.176 59.9844 176.73 59.4062C176.285 58.8281 175.941 58.1484 175.699 57.3672C175.465 56.5859 175.348 55.7344 175.348 54.8125ZM178.723 54.5664V54.8125C178.723 55.3359 178.773 55.8242 178.875 56.2773C178.977 56.7305 179.133 57.1328 179.344 57.4844C179.562 57.8281 179.832 58.0977 180.152 58.293C180.48 58.4805 180.867 58.5742 181.312 58.5742C181.93 58.5742 182.434 58.4453 182.824 58.1875C183.215 57.9219 183.508 57.5586 183.703 57.0977C183.898 56.6367 184.012 56.1055 184.043 55.5039V53.9688C184.027 53.4766 183.961 53.0352 183.844 52.6445C183.727 52.2461 183.562 51.9062 183.352 51.625C183.141 51.3438 182.867 51.125 182.531 50.9688C182.195 50.8125 181.797 50.7344 181.336 50.7344C180.891 50.7344 180.504 50.8359 180.176 51.0391C179.855 51.2344 179.586 51.5039 179.367 51.8477C179.156 52.1914 178.996 52.5977 178.887 53.0664C178.777 53.5273 178.723 54.0273 178.723 54.5664ZM192.855 43V61H189.48V43H192.855ZM192.375 54.2148H191.449C191.457 53.332 191.574 52.5195 191.801 51.7773C192.027 51.0273 192.352 50.3789 192.773 49.832C193.195 49.2773 193.699 48.8477 194.285 48.543C194.879 48.2383 195.535 48.0859 196.254 48.0859C196.879 48.0859 197.445 48.1758 197.953 48.3555C198.469 48.5273 198.91 48.8086 199.277 49.1992C199.652 49.582 199.941 50.0859 200.145 50.7109C200.348 51.3359 200.449 52.0938 200.449 52.9844V61H197.051V52.9609C197.051 52.3984 196.969 51.957 196.805 51.6367C196.648 51.3086 196.418 51.0781 196.113 50.9453C195.816 50.8047 195.449 50.7344 195.012 50.7344C194.527 50.7344 194.113 50.8242 193.77 51.0039C193.434 51.1836 193.164 51.4336 192.961 51.7539C192.758 52.0664 192.609 52.4336 192.516 52.8555C192.422 53.2773 192.375 53.7305 192.375 54.2148ZM209.227 48.3203V50.7109H201.844V48.3203H209.227ZM203.672 45.1914H207.047V57.1797C207.047 57.5469 207.094 57.8281 207.188 58.0234C207.289 58.2188 207.438 58.3555 207.633 58.4336C207.828 58.5039 208.074 58.5391 208.371 58.5391C208.582 58.5391 208.77 58.5312 208.934 58.5156C209.105 58.4922 209.25 58.4688 209.367 58.4453L209.379 60.9297C209.09 61.0234 208.777 61.0977 208.441 61.1523C208.105 61.207 207.734 61.2344 207.328 61.2344C206.586 61.2344 205.938 61.1133 205.383 60.8711C204.836 60.6211 204.414 60.2227 204.117 59.6758C203.82 59.1289 203.672 58.4102 203.672 57.5195V45.1914ZM215.098 43.9375V61H211.594V43.9375H215.098ZM227.66 58.4688L232.277 62.125L230.062 64.0469L225.516 60.3906L227.66 58.4688ZM232.395 52.0703V52.8789C232.395 54.1758 232.219 55.3398 231.867 56.3711C231.523 57.4023 231.027 58.2812 230.379 59.0078C229.73 59.7266 228.965 60.2773 228.082 60.6602C227.199 61.043 226.219 61.2344 225.141 61.2344C224.07 61.2344 223.09 61.043 222.199 60.6602C221.309 60.2773 220.539 59.7266 219.891 59.0078C219.242 58.2812 218.738 57.4023 218.379 56.3711C218.027 55.3398 217.852 54.1758 217.852 52.8789V52.0703C217.852 50.7656 218.027 49.6016 218.379 48.5781C218.738 47.5469 219.238 46.668 219.879 45.9414C220.52 45.2148 221.285 44.6602 222.176 44.2773C223.066 43.8945 224.047 43.7031 225.117 43.7031C226.195 43.7031 227.176 43.8945 228.059 44.2773C228.949 44.6602 229.719 45.2148 230.367 45.9414C231.016 46.668 231.516 47.5469 231.867 48.5781C232.219 49.6016 232.395 50.7656 232.395 52.0703ZM228.844 52.8789V52.0469C228.844 51.1406 228.758 50.3438 228.586 49.6562C228.422 48.9688 228.18 48.3906 227.859 47.9219C227.547 47.4531 227.16 47.1016 226.699 46.8672C226.238 46.625 225.711 46.5039 225.117 46.5039C224.523 46.5039 223.996 46.625 223.535 46.8672C223.074 47.1016 222.688 47.4531 222.375 47.9219C222.062 48.3906 221.824 48.9688 221.66 49.6562C221.496 50.3438 221.414 51.1406 221.414 52.0469V52.8789C221.414 53.7773 221.496 54.5742 221.66 55.2695C221.824 55.957 222.062 56.5391 222.375 57.0156C222.695 57.4844 223.086 57.8398 223.547 58.082C224.016 58.3242 224.547 58.4453 225.141 58.4453C225.734 58.4453 226.258 58.3242 226.711 58.082C227.172 57.8398 227.559 57.4844 227.871 57.0156C228.191 56.5391 228.434 55.957 228.598 55.2695C228.762 54.5742 228.844 53.7773 228.844 52.8789Z" fill="#888888"/>
<path d="M106.688 119H99.1172L99.1641 112.672H106.688C108.25 112.672 109.57 112.297 110.648 111.547C111.742 110.797 112.57 109.68 113.133 108.195C113.711 106.695 114 104.852 114 102.664V101.188C114 99.5469 113.836 98.1094 113.508 96.875C113.195 95.625 112.727 94.5859 112.102 93.7578C111.477 92.9141 110.695 92.2812 109.758 91.8594C108.836 91.4375 107.773 91.2266 106.57 91.2266H98.9766V84.875H106.57C108.883 84.875 111 85.2734 112.922 86.0703C114.859 86.8516 116.531 87.9766 117.938 89.4453C119.359 90.8984 120.453 92.625 121.219 94.625C122 96.6094 122.391 98.8125 122.391 101.234V102.664C122.391 105.07 122 107.273 121.219 109.273C120.453 111.273 119.367 113 117.961 114.453C116.555 115.906 114.891 117.031 112.969 117.828C111.062 118.609 108.969 119 106.688 119ZM103.828 84.875V119H95.6016V84.875H103.828ZM138.586 119.469C136.523 119.469 134.68 119.148 133.055 118.508C131.43 117.852 130.055 116.953 128.93 115.812C127.82 114.672 126.969 113.359 126.375 111.875C125.797 110.391 125.508 108.82 125.508 107.164V106.273C125.508 104.414 125.766 102.695 126.281 101.117C126.797 99.5234 127.562 98.1328 128.578 96.9453C129.594 95.7578 130.867 94.8359 132.398 94.1797C133.93 93.5078 135.711 93.1719 137.742 93.1719C139.539 93.1719 141.148 93.4609 142.57 94.0391C143.992 94.6172 145.195 95.4453 146.18 96.5234C147.18 97.6016 147.938 98.9062 148.453 100.438C148.984 101.969 149.25 103.688 149.25 105.594V108.805H128.531V103.859H141.539V103.25C141.555 102.406 141.406 101.688 141.094 101.094C140.797 100.5 140.359 100.047 139.781 99.7344C139.203 99.4219 138.5 99.2656 137.672 99.2656C136.812 99.2656 136.102 99.4531 135.539 99.8281C134.992 100.203 134.562 100.719 134.25 101.375C133.953 102.016 133.742 102.758 133.617 103.602C133.492 104.445 133.43 105.336 133.43 106.273V107.164C133.43 108.102 133.555 108.953 133.805 109.719C134.07 110.484 134.445 111.141 134.93 111.688C135.43 112.219 136.023 112.633 136.711 112.93C137.414 113.227 138.211 113.375 139.102 113.375C140.18 113.375 141.242 113.172 142.289 112.766C143.336 112.359 144.234 111.688 144.984 110.75L148.57 115.016C148.055 115.75 147.32 116.461 146.367 117.148C145.43 117.836 144.305 118.398 142.992 118.836C141.68 119.258 140.211 119.469 138.586 119.469ZM160.43 99.0078V119H152.531V93.6406H159.938L160.43 99.0078ZM159.469 105.453L157.664 105.5C157.664 103.719 157.875 102.078 158.297 100.578C158.719 99.0781 159.344 97.7734 160.172 96.6641C161 95.5547 162.016 94.6953 163.219 94.0859C164.438 93.4766 165.844 93.1719 167.438 93.1719C168.547 93.1719 169.555 93.3438 170.461 93.6875C171.367 94.0156 172.148 94.5391 172.805 95.2578C173.461 95.9609 173.961 96.8828 174.305 98.0234C174.664 99.1484 174.844 100.5 174.844 102.078V119H166.945V103.086C166.945 102.008 166.82 101.195 166.57 100.648C166.336 100.102 165.992 99.7344 165.539 99.5469C165.086 99.3594 164.531 99.2656 163.875 99.2656C163.188 99.2656 162.57 99.4219 162.023 99.7344C161.477 100.047 161.008 100.484 160.617 101.047C160.242 101.594 159.953 102.242 159.75 102.992C159.562 103.742 159.469 104.562 159.469 105.453ZM173.953 105.453L171.75 105.5C171.75 103.719 171.945 102.078 172.336 100.578C172.742 99.0781 173.344 97.7734 174.141 96.6641C174.953 95.5547 175.961 94.6953 177.164 94.0859C178.367 93.4766 179.766 93.1719 181.359 93.1719C182.516 93.1719 183.578 93.3438 184.547 93.6875C185.516 94.0312 186.352 94.5859 187.055 95.3516C187.758 96.1172 188.305 97.1328 188.695 98.3984C189.086 99.6484 189.281 101.195 189.281 103.039V119H181.359V103.039C181.359 101.992 181.234 101.203 180.984 100.672C180.75 100.125 180.406 99.7578 179.953 99.5703C179.5 99.3672 178.961 99.2656 178.336 99.2656C177.586 99.2656 176.938 99.4219 176.391 99.7344C175.844 100.047 175.383 100.484 175.008 101.047C174.648 101.594 174.383 102.242 174.211 102.992C174.039 103.742 173.953 104.562 173.953 105.453ZM192.82 106.578V106.086C192.82 104.227 193.086 102.516 193.617 100.953C194.148 99.375 194.93 98.0078 195.961 96.8516C196.992 95.6953 198.266 94.7969 199.781 94.1562C201.297 93.5 203.047 93.1719 205.031 93.1719C207.031 93.1719 208.789 93.5 210.305 94.1562C211.836 94.7969 213.117 95.6953 214.148 96.8516C215.18 98.0078 215.961 99.375 216.492 100.953C217.023 102.516 217.289 104.227 217.289 106.086V106.578C217.289 108.422 217.023 110.133 216.492 111.711C215.961 113.273 215.18 114.641 214.148 115.812C213.117 116.969 211.844 117.867 210.328 118.508C208.812 119.148 207.062 119.469 205.078 119.469C203.094 119.469 201.336 119.148 199.805 118.508C198.273 117.867 196.992 116.969 195.961 115.812C194.93 114.641 194.148 113.273 193.617 111.711C193.086 110.133 192.82 108.422 192.82 106.578ZM200.719 106.086V106.578C200.719 107.531 200.789 108.422 200.93 109.25C201.07 110.078 201.305 110.805 201.633 111.43C201.961 112.039 202.406 112.516 202.969 112.859C203.531 113.203 204.234 113.375 205.078 113.375C205.906 113.375 206.594 113.203 207.141 112.859C207.703 112.516 208.148 112.039 208.477 111.43C208.805 110.805 209.039 110.078 209.18 109.25C209.32 108.422 209.391 107.531 209.391 106.578V106.086C209.391 105.164 209.32 104.297 209.18 103.484C209.039 102.656 208.805 101.93 208.477 101.305C208.148 100.664 207.703 100.164 207.141 99.8047C206.578 99.4453 205.875 99.2656 205.031 99.2656C204.203 99.2656 203.508 99.4453 202.945 99.8047C202.398 100.164 201.961 100.664 201.633 101.305C201.305 101.93 201.07 102.656 200.93 103.484C200.789 104.297 200.719 105.164 200.719 106.086Z" fill="black"/>
<path d="M1134 0H1348C1356.28 0 1363 6.71573 1363 15V148C1363 156.284 1356.28 163 1348 163H1134V0Z" fill="#0D59F2"/>
<path d="M1280.07 47.5H1216.93L1214.5 49.9286V113.071L1216.93 115.5H1280.07L1282.5 113.071V49.9286L1280.07 47.5ZM1277.64 110.643H1233.93V100.929H1245.1C1246.56 103.843 1249.96 105.786 1253.36 105.786C1258.7 105.786 1263.07 101.414 1263.07 96.0714C1263.07 90.7286 1258.7 86.3571 1253.36 86.3571C1248.01 86.3571 1243.64 90.7286 1243.64 96.0714H1229.07V110.643H1219.36V52.3571H1229.07V63.5286C1226.16 64.9857 1224.21 68.3857 1224.21 71.7857C1224.21 77.1286 1228.59 81.5 1233.93 81.5C1239.27 81.5 1243.64 77.1286 1243.64 71.7857H1253.36C1253.36 77.1286 1257.73 81.5 1263.07 81.5C1268.41 81.5 1272.79 77.1286 1272.79 71.7857C1272.79 66.4429 1268.41 62.0714 1263.07 62.0714C1259.67 62.0714 1256.27 64.0143 1254.81 66.9286H1242.19C1240.73 64.0143 1237.33 62.0714 1233.93 62.0714V52.3571H1277.64V110.643ZM1248.5 96.0714C1248.5 93.1571 1250.44 91.2143 1253.36 91.2143C1256.27 91.2143 1258.21 93.1571 1258.21 96.0714C1258.21 98.9857 1256.27 100.929 1253.36 100.929C1250.44 100.929 1248.5 98.9857 1248.5 96.0714ZM1233.93 66.9286C1236.84 66.9286 1238.79 68.8714 1238.79 71.7857C1238.79 74.7 1236.84 76.6429 1233.93 76.6429C1231.01 76.6429 1229.07 74.7 1229.07 71.7857C1229.07 68.8714 1231.01 66.9286 1233.93 66.9286ZM1263.07 66.9286C1265.99 66.9286 1267.93 68.8714 1267.93 71.7857C1267.93 74.7 1265.99 76.6429 1263.07 76.6429C1260.16 76.6429 1258.21 74.7 1258.21 71.7857C1258.21 68.8714 1260.16 66.9286 1263.07 66.9286Z" fill="white"/>
</svg>
