<svg width="1363" height="163" viewBox="0 0 1363 163" fill="none" xmlns="http://www.w3.org/2000/svg">
<path d="M0 15C0 6.71573 6.71573 0 15 0H37V163H15C6.71573 163 0 156.284 0 148V15Z" fill="#111318"/>
<rect width="1097" height="163" transform="translate(37)" fill="#F0F0F0"/>
<path d="M101.906 53.9219L94.3945 51.2383V48.0859L104.602 52.375V54.6367L101.906 53.9219ZM94.3945 56.1719L101.918 53.4297L104.602 52.7852V55.0352L94.3945 59.3242V56.1719ZM124.277 50.8867V53.6289H115.371V50.8867H124.277ZM116.414 43.9375V61H112.898V43.9375H116.414ZM126.785 43.9375V61H123.281V43.9375H126.785ZM133.195 48.3203V61H129.809V48.3203H133.195ZM129.598 45.0156C129.598 44.5234 129.77 44.1172 130.113 43.7969C130.457 43.4766 130.918 43.3164 131.496 43.3164C132.066 43.3164 132.523 43.4766 132.867 43.7969C133.219 44.1172 133.395 44.5234 133.395 45.0156C133.395 45.5078 133.219 45.9141 132.867 46.2344C132.523 46.5547 132.066 46.7148 131.496 46.7148C130.918 46.7148 130.457 46.5547 130.113 46.2344C129.77 45.9141 129.598 45.5078 129.598 45.0156ZM144.012 48.3203H147.07V60.5781C147.07 61.7344 146.812 62.7148 146.297 63.5195C145.789 64.332 145.078 64.9453 144.164 65.3594C143.25 65.7812 142.188 65.9922 140.977 65.9922C140.445 65.9922 139.883 65.9219 139.289 65.7812C138.703 65.6406 138.141 65.4219 137.602 65.125C137.07 64.8281 136.625 64.4531 136.266 64L137.754 62.0078C138.145 62.4609 138.598 62.8125 139.113 63.0625C139.629 63.3203 140.199 63.4492 140.824 63.4492C141.434 63.4492 141.949 63.3359 142.371 63.1094C142.793 62.8906 143.117 62.5664 143.344 62.1367C143.57 61.7148 143.684 61.2031 143.684 60.6016V51.25L144.012 48.3203ZM135.48 54.8125V54.5664C135.48 53.5977 135.598 52.7188 135.832 51.9297C136.074 51.1328 136.414 50.4492 136.852 49.8789C137.297 49.3086 137.836 48.8672 138.469 48.5547C139.102 48.2422 139.816 48.0859 140.613 48.0859C141.457 48.0859 142.164 48.2422 142.734 48.5547C143.305 48.8672 143.773 49.3125 144.141 49.8906C144.508 50.4609 144.793 51.1367 144.996 51.918C145.207 52.6914 145.371 53.5391 145.488 54.4609V55C145.371 55.8828 145.195 56.7031 144.961 57.4609C144.727 58.2188 144.418 58.8828 144.035 59.4531C143.652 60.0156 143.176 60.4531 142.605 60.7656C142.043 61.0781 141.371 61.2344 140.59 61.2344C139.809 61.2344 139.102 61.0742 138.469 60.7539C137.844 60.4336 137.309 59.9844 136.863 59.4062C136.418 58.8281 136.074 58.1484 135.832 57.3672C135.598 56.5859 135.48 55.7344 135.48 54.8125ZM138.855 54.5664V54.8125C138.855 55.3359 138.906 55.8242 139.008 56.2773C139.109 56.7305 139.266 57.1328 139.477 57.4844C139.695 57.8281 139.965 58.0977 140.285 58.293C140.613 58.4805 141 58.5742 141.445 58.5742C142.062 58.5742 142.566 58.4453 142.957 58.1875C143.348 57.9219 143.641 57.5586 143.836 57.0977C144.031 56.6367 144.145 56.1055 144.176 55.5039V53.9688C144.16 53.4766 144.094 53.0352 143.977 52.6445C143.859 52.2461 143.695 51.9062 143.484 51.625C143.273 51.3438 143 51.125 142.664 50.9688C142.328 50.8125 141.93 50.7344 141.469 50.7344C141.023 50.7344 140.637 50.8359 140.309 51.0391C139.988 51.2344 139.719 51.5039 139.5 51.8477C139.289 52.1914 139.129 52.5977 139.02 53.0664C138.91 53.5273 138.855 54.0273 138.855 54.5664ZM152.988 43V61H149.613V43H152.988ZM152.508 54.2148H151.582C151.59 53.332 151.707 52.5195 151.934 51.7773C152.16 51.0273 152.484 50.3789 152.906 49.832C153.328 49.2773 153.832 48.8477 154.418 48.543C155.012 48.2383 155.668 48.0859 156.387 48.0859C157.012 48.0859 157.578 48.1758 158.086 48.3555C158.602 48.5273 159.043 48.8086 159.41 49.1992C159.785 49.582 160.074 50.0859 160.277 50.7109C160.48 51.3359 160.582 52.0938 160.582 52.9844V61H157.184V52.9609C157.184 52.3984 157.102 51.957 156.938 51.6367C156.781 51.3086 156.551 51.0781 156.246 50.9453C155.949 50.8047 155.582 50.7344 155.145 50.7344C154.66 50.7344 154.246 50.8242 153.902 51.0039C153.566 51.1836 153.297 51.4336 153.094 51.7539C152.891 52.0664 152.742 52.4336 152.648 52.8555C152.555 53.2773 152.508 53.7305 152.508 54.2148ZM166.711 43V61H163.324V43H166.711ZM173.062 48.3203V61H169.676V48.3203H173.062ZM169.465 45.0156C169.465 44.5234 169.637 44.1172 169.98 43.7969C170.324 43.4766 170.785 43.3164 171.363 43.3164C171.934 43.3164 172.391 43.4766 172.734 43.7969C173.086 44.1172 173.262 44.5234 173.262 45.0156C173.262 45.5078 173.086 45.9141 172.734 46.2344C172.391 46.5547 171.934 46.7148 171.363 46.7148C170.785 46.7148 170.324 46.5547 169.98 46.2344C169.637 45.9141 169.465 45.5078 169.465 45.0156ZM183.879 48.3203H186.938V60.5781C186.938 61.7344 186.68 62.7148 186.164 63.5195C185.656 64.332 184.945 64.9453 184.031 65.3594C183.117 65.7812 182.055 65.9922 180.844 65.9922C180.312 65.9922 179.75 65.9219 179.156 65.7812C178.57 65.6406 178.008 65.4219 177.469 65.125C176.938 64.8281 176.492 64.4531 176.133 64L177.621 62.0078C178.012 62.4609 178.465 62.8125 178.98 63.0625C179.496 63.3203 180.066 63.4492 180.691 63.4492C181.301 63.4492 181.816 63.3359 182.238 63.1094C182.66 62.8906 182.984 62.5664 183.211 62.1367C183.438 61.7148 183.551 61.2031 183.551 60.6016V51.25L183.879 48.3203ZM175.348 54.8125V54.5664C175.348 53.5977 175.465 52.7188 175.699 51.9297C175.941 51.1328 176.281 50.4492 176.719 49.8789C177.164 49.3086 177.703 48.8672 178.336 48.5547C178.969 48.2422 179.684 48.0859 180.48 48.0859C181.324 48.0859 182.031 48.2422 182.602 48.5547C183.172 48.8672 183.641 49.3125 184.008 49.8906C184.375 50.4609 184.66 51.1367 184.863 51.918C185.074 52.6914 185.238 53.5391 185.355 54.4609V55C185.238 55.8828 185.062 56.7031 184.828 57.4609C184.594 58.2188 184.285 58.8828 183.902 59.4531C183.52 60.0156 183.043 60.4531 182.473 60.7656C181.91 61.0781 181.238 61.2344 180.457 61.2344C179.676 61.2344 178.969 61.0742 178.336 60.7539C177.711 60.4336 177.176 59.9844 176.73 59.4062C176.285 58.8281 175.941 58.1484 175.699 57.3672C175.465 56.5859 175.348 55.7344 175.348 54.8125ZM178.723 54.5664V54.8125C178.723 55.3359 178.773 55.8242 178.875 56.2773C178.977 56.7305 179.133 57.1328 179.344 57.4844C179.562 57.8281 179.832 58.0977 180.152 58.293C180.48 58.4805 180.867 58.5742 181.312 58.5742C181.93 58.5742 182.434 58.4453 182.824 58.1875C183.215 57.9219 183.508 57.5586 183.703 57.0977C183.898 56.6367 184.012 56.1055 184.043 55.5039V53.9688C184.027 53.4766 183.961 53.0352 183.844 52.6445C183.727 52.2461 183.562 51.9062 183.352 51.625C183.141 51.3438 182.867 51.125 182.531 50.9688C182.195 50.8125 181.797 50.7344 181.336 50.7344C180.891 50.7344 180.504 50.8359 180.176 51.0391C179.855 51.2344 179.586 51.5039 179.367 51.8477C179.156 52.1914 178.996 52.5977 178.887 53.0664C178.777 53.5273 178.723 54.0273 178.723 54.5664ZM192.855 43V61H189.48V43H192.855ZM192.375 54.2148H191.449C191.457 53.332 191.574 52.5195 191.801 51.7773C192.027 51.0273 192.352 50.3789 192.773 49.832C193.195 49.2773 193.699 48.8477 194.285 48.543C194.879 48.2383 195.535 48.0859 196.254 48.0859C196.879 48.0859 197.445 48.1758 197.953 48.3555C198.469 48.5273 198.91 48.8086 199.277 49.1992C199.652 49.582 199.941 50.0859 200.145 50.7109C200.348 51.3359 200.449 52.0938 200.449 52.9844V61H197.051V52.9609C197.051 52.3984 196.969 51.957 196.805 51.6367C196.648 51.3086 196.418 51.0781 196.113 50.9453C195.816 50.8047 195.449 50.7344 195.012 50.7344C194.527 50.7344 194.113 50.8242 193.77 51.0039C193.434 51.1836 193.164 51.4336 192.961 51.7539C192.758 52.0664 192.609 52.4336 192.516 52.8555C192.422 53.2773 192.375 53.7305 192.375 54.2148ZM209.227 48.3203V50.7109H201.844V48.3203H209.227ZM203.672 45.1914H207.047V57.1797C207.047 57.5469 207.094 57.8281 207.188 58.0234C207.289 58.2188 207.438 58.3555 207.633 58.4336C207.828 58.5039 208.074 58.5391 208.371 58.5391C208.582 58.5391 208.77 58.5312 208.934 58.5156C209.105 58.4922 209.25 58.4688 209.367 58.4453L209.379 60.9297C209.09 61.0234 208.777 61.0977 208.441 61.1523C208.105 61.207 207.734 61.2344 207.328 61.2344C206.586 61.2344 205.938 61.1133 205.383 60.8711C204.836 60.6211 204.414 60.2227 204.117 59.6758C203.82 59.1289 203.672 58.4102 203.672 57.5195V45.1914ZM215.098 43.9375V61H211.594V43.9375H215.098ZM227.66 58.4688L232.277 62.125L230.062 64.0469L225.516 60.3906L227.66 58.4688ZM232.395 52.0703V52.8789C232.395 54.1758 232.219 55.3398 231.867 56.3711C231.523 57.4023 231.027 58.2812 230.379 59.0078C229.73 59.7266 228.965 60.2773 228.082 60.6602C227.199 61.043 226.219 61.2344 225.141 61.2344C224.07 61.2344 223.09 61.043 222.199 60.6602C221.309 60.2773 220.539 59.7266 219.891 59.0078C219.242 58.2812 218.738 57.4023 218.379 56.3711C218.027 55.3398 217.852 54.1758 217.852 52.8789V52.0703C217.852 50.7656 218.027 49.6016 218.379 48.5781C218.738 47.5469 219.238 46.668 219.879 45.9414C220.52 45.2148 221.285 44.6602 222.176 44.2773C223.066 43.8945 224.047 43.7031 225.117 43.7031C226.195 43.7031 227.176 43.8945 228.059 44.2773C228.949 44.6602 229.719 45.2148 230.367 45.9414C231.016 46.668 231.516 47.5469 231.867 48.5781C232.219 49.6016 232.395 50.7656 232.395 52.0703ZM228.844 52.8789V52.0469C228.844 51.1406 228.758 50.3438 228.586 49.6562C228.422 48.9688 228.18 48.3906 227.859 47.9219C227.547 47.4531 227.16 47.1016 226.699 46.8672C226.238 46.625 225.711 46.5039 225.117 46.5039C224.523 46.5039 223.996 46.625 223.535 46.8672C223.074 47.1016 222.688 47.4531 222.375 47.9219C222.062 48.3906 221.824 48.9688 221.66 49.6562C221.496 50.3438 221.414 51.1406 221.414 52.0469V52.8789C221.414 53.7773 221.496 54.5742 221.66 55.2695C221.824 55.957 222.062 56.5391 222.375 57.0156C222.695 57.4844 223.086 57.8398 223.547 58.082C224.016 58.3242 224.547 58.4453 225.141 58.4453C225.734 58.4453 226.258 58.3242 226.711 58.082C227.172 57.8398 227.559 57.4844 227.871 57.0156C228.191 56.5391 228.434 55.957 228.598 55.2695C228.762 54.5742 228.844 53.7773 228.844 52.8789Z" fill="#888888"/>
<path d="M113.18 109.93C113.18 109.398 113.102 108.922 112.945 108.5C112.789 108.062 112.5 107.656 112.078 107.281C111.656 106.906 111.047 106.531 110.25 106.156C109.469 105.766 108.438 105.359 107.156 104.938C105.656 104.438 104.211 103.875 102.82 103.25C101.43 102.609 100.188 101.867 99.0938 101.023C98 100.164 97.1328 99.1641 96.4922 98.0234C95.8516 96.8672 95.5312 95.5234 95.5312 93.9922C95.5312 92.5234 95.8594 91.2031 96.5156 90.0312C97.1719 88.8438 98.0859 87.8359 99.2578 87.0078C100.445 86.1641 101.836 85.5234 103.43 85.0859C105.023 84.6328 106.766 84.4062 108.656 84.4062C111.156 84.4062 113.359 84.8438 115.266 85.7188C117.188 86.5781 118.688 87.8047 119.766 89.3984C120.859 90.9766 121.406 92.8438 121.406 95H113.227C113.227 94.1406 113.047 93.3828 112.688 92.7266C112.344 92.0703 111.82 91.5547 111.117 91.1797C110.414 90.8047 109.531 90.6172 108.469 90.6172C107.438 90.6172 106.57 90.7734 105.867 91.0859C105.164 91.3984 104.633 91.8203 104.273 92.3516C103.914 92.8672 103.734 93.4375 103.734 94.0625C103.734 94.5781 103.875 95.0469 104.156 95.4688C104.453 95.875 104.867 96.2578 105.398 96.6172C105.945 96.9766 106.602 97.3203 107.367 97.6484C108.148 97.9766 109.023 98.2969 109.992 98.6094C111.805 99.1875 113.414 99.8359 114.82 100.555C116.242 101.258 117.438 102.062 118.406 102.969C119.391 103.859 120.133 104.875 120.633 106.016C121.148 107.156 121.406 108.445 121.406 109.883C121.406 111.414 121.109 112.773 120.516 113.961C119.922 115.148 119.07 116.156 117.961 116.984C116.852 117.797 115.523 118.414 113.977 118.836C112.43 119.258 110.703 119.469 108.797 119.469C107.047 119.469 105.32 119.25 103.617 118.812C101.93 118.359 100.398 117.672 99.0234 116.75C97.6484 115.812 96.5469 114.617 95.7188 113.164C94.9062 111.695 94.5 109.953 94.5 107.938H102.75C102.75 108.938 102.883 109.781 103.148 110.469C103.414 111.156 103.805 111.711 104.32 112.133C104.836 112.539 105.469 112.836 106.219 113.023C106.969 113.195 107.828 113.281 108.797 113.281C109.844 113.281 110.688 113.133 111.328 112.836C111.969 112.523 112.438 112.117 112.734 111.617C113.031 111.102 113.18 110.539 113.18 109.93ZM133.055 116.023L139.617 93.6406H148.102L137.906 122.773C137.688 123.414 137.398 124.102 137.039 124.836C136.68 125.586 136.188 126.297 135.562 126.969C134.938 127.641 134.133 128.188 133.148 128.609C132.18 129.031 130.977 129.242 129.539 129.242C128.773 129.242 128.211 129.203 127.852 129.125C127.508 129.062 126.977 128.945 126.258 128.773V123.125C126.461 123.125 126.633 123.125 126.773 123.125C126.93 123.125 127.102 123.125 127.289 123.125C128.133 123.125 128.805 123.039 129.305 122.867C129.82 122.695 130.211 122.445 130.477 122.117C130.758 121.789 130.977 121.391 131.133 120.922L133.055 116.023ZM131.391 93.6406L136.383 111.383L137.25 119.75H131.953L122.93 93.6406H131.391ZM163.453 111.875C163.453 111.438 163.305 111.062 163.008 110.75C162.727 110.422 162.227 110.125 161.508 109.859C160.789 109.578 159.781 109.297 158.484 109.016C157.25 108.75 156.086 108.398 154.992 107.961C153.914 107.523 152.969 106.992 152.156 106.367C151.344 105.742 150.703 105 150.234 104.141C149.781 103.281 149.555 102.297 149.555 101.188C149.555 100.109 149.781 99.0938 150.234 98.1406C150.703 97.1719 151.383 96.3203 152.273 95.5859C153.18 94.8359 154.281 94.25 155.578 93.8281C156.875 93.3906 158.352 93.1719 160.008 93.1719C162.289 93.1719 164.258 93.5234 165.914 94.2266C167.57 94.9141 168.844 95.8828 169.734 97.1328C170.641 98.3672 171.094 99.7969 171.094 101.422H163.195C163.195 100.781 163.086 100.234 162.867 99.7812C162.664 99.3281 162.328 98.9844 161.859 98.75C161.391 98.5 160.766 98.375 159.984 98.375C159.438 98.375 158.938 98.4766 158.484 98.6797C158.047 98.8828 157.695 99.1641 157.43 99.5234C157.164 99.8828 157.031 100.305 157.031 100.789C157.031 101.133 157.109 101.445 157.266 101.727C157.438 101.992 157.695 102.242 158.039 102.477C158.383 102.695 158.82 102.898 159.352 103.086C159.883 103.258 160.523 103.414 161.273 103.555C162.977 103.867 164.57 104.312 166.055 104.891C167.539 105.469 168.742 106.289 169.664 107.352C170.602 108.414 171.07 109.844 171.07 111.641C171.07 112.766 170.812 113.805 170.297 114.758C169.781 115.695 169.039 116.523 168.07 117.242C167.102 117.945 165.938 118.492 164.578 118.883C163.219 119.273 161.688 119.469 159.984 119.469C157.562 119.469 155.516 119.039 153.844 118.18C152.172 117.305 150.906 116.211 150.047 114.898C149.203 113.57 148.781 112.227 148.781 110.867H156.141C156.172 111.648 156.359 112.289 156.703 112.789C157.062 113.289 157.539 113.656 158.133 113.891C158.727 114.125 159.414 114.242 160.195 114.242C160.914 114.242 161.508 114.141 161.977 113.938C162.461 113.734 162.828 113.461 163.078 113.117C163.328 112.758 163.453 112.344 163.453 111.875ZM188.133 93.6406V99.125H172.852V93.6406H188.133ZM176.062 87.3359H183.961V110.727C183.961 111.398 184.039 111.922 184.195 112.297C184.352 112.656 184.617 112.914 184.992 113.07C185.383 113.211 185.898 113.281 186.539 113.281C186.992 113.281 187.367 113.273 187.664 113.258C187.961 113.227 188.242 113.188 188.508 113.141V118.789C187.836 119.008 187.133 119.172 186.398 119.281C185.664 119.406 184.883 119.469 184.055 119.469C182.367 119.469 180.922 119.203 179.719 118.672C178.531 118.141 177.625 117.305 177 116.164C176.375 115.023 176.062 113.539 176.062 111.711V87.3359ZM203.555 119.469C201.492 119.469 199.648 119.148 198.023 118.508C196.398 117.852 195.023 116.953 193.898 115.812C192.789 114.672 191.938 113.359 191.344 111.875C190.766 110.391 190.477 108.82 190.477 107.164V106.273C190.477 104.414 190.734 102.695 191.25 101.117C191.766 99.5234 192.531 98.1328 193.547 96.9453C194.562 95.7578 195.836 94.8359 197.367 94.1797C198.898 93.5078 200.68 93.1719 202.711 93.1719C204.508 93.1719 206.117 93.4609 207.539 94.0391C208.961 94.6172 210.164 95.4453 211.148 96.5234C212.148 97.6016 212.906 98.9062 213.422 100.438C213.953 101.969 214.219 103.688 214.219 105.594V108.805H193.5V103.859H206.508V103.25C206.523 102.406 206.375 101.688 206.062 101.094C205.766 100.5 205.328 100.047 204.75 99.7344C204.172 99.4219 203.469 99.2656 202.641 99.2656C201.781 99.2656 201.07 99.4531 200.508 99.8281C199.961 100.203 199.531 100.719 199.219 101.375C198.922 102.016 198.711 102.758 198.586 103.602C198.461 104.445 198.398 105.336 198.398 106.273V107.164C198.398 108.102 198.523 108.953 198.773 109.719C199.039 110.484 199.414 111.141 199.898 111.688C200.398 112.219 200.992 112.633 201.68 112.93C202.383 113.227 203.18 113.375 204.07 113.375C205.148 113.375 206.211 113.172 207.258 112.766C208.305 112.359 209.203 111.688 209.953 110.75L213.539 115.016C213.023 115.75 212.289 116.461 211.336 117.148C210.398 117.836 209.273 118.398 207.961 118.836C206.648 119.258 205.18 119.469 203.555 119.469ZM225.398 99.0078V119H217.5V93.6406H224.906L225.398 99.0078ZM224.438 105.453L222.633 105.5C222.633 103.719 222.844 102.078 223.266 100.578C223.688 99.0781 224.312 97.7734 225.141 96.6641C225.969 95.5547 226.984 94.6953 228.188 94.0859C229.406 93.4766 230.812 93.1719 232.406 93.1719C233.516 93.1719 234.523 93.3438 235.43 93.6875C236.336 94.0156 237.117 94.5391 237.773 95.2578C238.43 95.9609 238.93 96.8828 239.273 98.0234C239.633 99.1484 239.812 100.5 239.812 102.078V119H231.914V103.086C231.914 102.008 231.789 101.195 231.539 100.648C231.305 100.102 230.961 99.7344 230.508 99.5469C230.055 99.3594 229.5 99.2656 228.844 99.2656C228.156 99.2656 227.539 99.4219 226.992 99.7344C226.445 100.047 225.977 100.484 225.586 101.047C225.211 101.594 224.922 102.242 224.719 102.992C224.531 103.742 224.438 104.562 224.438 105.453ZM238.922 105.453L236.719 105.5C236.719 103.719 236.914 102.078 237.305 100.578C237.711 99.0781 238.312 97.7734 239.109 96.6641C239.922 95.5547 240.93 94.6953 242.133 94.0859C243.336 93.4766 244.734 93.1719 246.328 93.1719C247.484 93.1719 248.547 93.3438 249.516 93.6875C250.484 94.0312 251.32 94.5859 252.023 95.3516C252.727 96.1172 253.273 97.1328 253.664 98.3984C254.055 99.6484 254.25 101.195 254.25 103.039V119H246.328V103.039C246.328 101.992 246.203 101.203 245.953 100.672C245.719 100.125 245.375 99.7578 244.922 99.5703C244.469 99.3672 243.93 99.2656 243.305 99.2656C242.555 99.2656 241.906 99.4219 241.359 99.7344C240.812 100.047 240.352 100.484 239.977 101.047C239.617 101.594 239.352 102.242 239.18 102.992C239.008 103.742 238.922 104.562 238.922 105.453ZM282.188 119H274.617L274.664 112.672H282.188C283.75 112.672 285.07 112.297 286.148 111.547C287.242 110.797 288.07 109.68 288.633 108.195C289.211 106.695 289.5 104.852 289.5 102.664V101.188C289.5 99.5469 289.336 98.1094 289.008 96.875C288.695 95.625 288.227 94.5859 287.602 93.7578C286.977 92.9141 286.195 92.2812 285.258 91.8594C284.336 91.4375 283.273 91.2266 282.07 91.2266H274.477V84.875H282.07C284.383 84.875 286.5 85.2734 288.422 86.0703C290.359 86.8516 292.031 87.9766 293.438 89.4453C294.859 90.8984 295.953 92.625 296.719 94.625C297.5 96.6094 297.891 98.8125 297.891 101.234V102.664C297.891 105.07 297.5 107.273 296.719 109.273C295.953 111.273 294.867 113 293.461 114.453C292.055 115.906 290.391 117.031 288.469 117.828C286.562 118.609 284.469 119 282.188 119ZM279.328 84.875V119H271.102V84.875H279.328ZM314.086 119.469C312.023 119.469 310.18 119.148 308.555 118.508C306.93 117.852 305.555 116.953 304.43 115.812C303.32 114.672 302.469 113.359 301.875 111.875C301.297 110.391 301.008 108.82 301.008 107.164V106.273C301.008 104.414 301.266 102.695 301.781 101.117C302.297 99.5234 303.062 98.1328 304.078 96.9453C305.094 95.7578 306.367 94.8359 307.898 94.1797C309.43 93.5078 311.211 93.1719 313.242 93.1719C315.039 93.1719 316.648 93.4609 318.07 94.0391C319.492 94.6172 320.695 95.4453 321.68 96.5234C322.68 97.6016 323.438 98.9062 323.953 100.438C324.484 101.969 324.75 103.688 324.75 105.594V108.805H304.031V103.859H317.039V103.25C317.055 102.406 316.906 101.688 316.594 101.094C316.297 100.5 315.859 100.047 315.281 99.7344C314.703 99.4219 314 99.2656 313.172 99.2656C312.312 99.2656 311.602 99.4531 311.039 99.8281C310.492 100.203 310.062 100.719 309.75 101.375C309.453 102.016 309.242 102.758 309.117 103.602C308.992 104.445 308.93 105.336 308.93 106.273V107.164C308.93 108.102 309.055 108.953 309.305 109.719C309.57 110.484 309.945 111.141 310.43 111.688C310.93 112.219 311.523 112.633 312.211 112.93C312.914 113.227 313.711 113.375 314.602 113.375C315.68 113.375 316.742 113.172 317.789 112.766C318.836 112.359 319.734 111.688 320.484 110.75L324.07 115.016C323.555 115.75 322.82 116.461 321.867 117.148C320.93 117.836 319.805 118.398 318.492 118.836C317.18 119.258 315.711 119.469 314.086 119.469ZM341.25 111.875C341.25 111.438 341.102 111.062 340.805 110.75C340.523 110.422 340.023 110.125 339.305 109.859C338.586 109.578 337.578 109.297 336.281 109.016C335.047 108.75 333.883 108.398 332.789 107.961C331.711 107.523 330.766 106.992 329.953 106.367C329.141 105.742 328.5 105 328.031 104.141C327.578 103.281 327.352 102.297 327.352 101.188C327.352 100.109 327.578 99.0938 328.031 98.1406C328.5 97.1719 329.18 96.3203 330.07 95.5859C330.977 94.8359 332.078 94.25 333.375 93.8281C334.672 93.3906 336.148 93.1719 337.805 93.1719C340.086 93.1719 342.055 93.5234 343.711 94.2266C345.367 94.9141 346.641 95.8828 347.531 97.1328C348.438 98.3672 348.891 99.7969 348.891 101.422H340.992C340.992 100.781 340.883 100.234 340.664 99.7812C340.461 99.3281 340.125 98.9844 339.656 98.75C339.188 98.5 338.562 98.375 337.781 98.375C337.234 98.375 336.734 98.4766 336.281 98.6797C335.844 98.8828 335.492 99.1641 335.227 99.5234C334.961 99.8828 334.828 100.305 334.828 100.789C334.828 101.133 334.906 101.445 335.062 101.727C335.234 101.992 335.492 102.242 335.836 102.477C336.18 102.695 336.617 102.898 337.148 103.086C337.68 103.258 338.32 103.414 339.07 103.555C340.773 103.867 342.367 104.312 343.852 104.891C345.336 105.469 346.539 106.289 347.461 107.352C348.398 108.414 348.867 109.844 348.867 111.641C348.867 112.766 348.609 113.805 348.094 114.758C347.578 115.695 346.836 116.523 345.867 117.242C344.898 117.945 343.734 118.492 342.375 118.883C341.016 119.273 339.484 119.469 337.781 119.469C335.359 119.469 333.312 119.039 331.641 118.18C329.969 117.305 328.703 116.211 327.844 114.898C327 113.57 326.578 112.227 326.578 110.867H333.938C333.969 111.648 334.156 112.289 334.5 112.789C334.859 113.289 335.336 113.656 335.93 113.891C336.523 114.125 337.211 114.242 337.992 114.242C338.711 114.242 339.305 114.141 339.773 113.938C340.258 113.734 340.625 113.461 340.875 113.117C341.125 112.758 341.25 112.344 341.25 111.875ZM360.914 93.6406V119H352.992V93.6406H360.914ZM352.523 87.1016C352.523 85.9766 352.93 85.0547 353.742 84.3359C354.555 83.6172 355.609 83.2578 356.906 83.2578C358.203 83.2578 359.258 83.6172 360.07 84.3359C360.883 85.0547 361.289 85.9766 361.289 87.1016C361.289 88.2266 360.883 89.1484 360.07 89.8672C359.258 90.5859 358.203 90.9453 356.906 90.9453C355.609 90.9453 354.555 90.5859 353.742 89.8672C352.93 89.1484 352.523 88.2266 352.523 87.1016ZM381.727 93.6406H388.898V118.016C388.898 120.359 388.359 122.344 387.281 123.969C386.203 125.609 384.695 126.852 382.758 127.695C380.836 128.555 378.586 128.984 376.008 128.984C374.867 128.984 373.703 128.836 372.516 128.539C371.328 128.258 370.219 127.836 369.188 127.273C368.156 126.711 367.289 126.016 366.586 125.188L369.891 120.547C370.531 121.266 371.336 121.875 372.305 122.375C373.273 122.891 374.414 123.148 375.727 123.148C376.867 123.148 377.82 122.945 378.586 122.539C379.367 122.133 379.961 121.539 380.367 120.758C380.773 119.992 380.977 119.062 380.977 117.969V99.6406L381.727 93.6406ZM364.875 106.625V106.133C364.875 104.211 365.109 102.461 365.578 100.883C366.062 99.2891 366.75 97.9219 367.641 96.7812C368.547 95.625 369.641 94.7344 370.922 94.1094C372.203 93.4844 373.648 93.1719 375.258 93.1719C376.992 93.1719 378.414 93.5078 379.523 94.1797C380.648 94.8359 381.547 95.7578 382.219 96.9453C382.906 98.1328 383.438 99.5234 383.812 101.117C384.203 102.695 384.531 104.398 384.797 106.227V106.812C384.531 108.531 384.164 110.156 383.695 111.688C383.242 113.203 382.648 114.547 381.914 115.719C381.18 116.891 380.258 117.812 379.148 118.484C378.055 119.141 376.742 119.469 375.211 119.469C373.617 119.469 372.18 119.148 370.898 118.508C369.633 117.867 368.547 116.969 367.641 115.812C366.75 114.656 366.062 113.297 365.578 111.734C365.109 110.172 364.875 108.469 364.875 106.625ZM372.773 106.133V106.625C372.773 107.578 372.859 108.461 373.031 109.273C373.219 110.086 373.5 110.805 373.875 111.43C374.25 112.039 374.711 112.516 375.258 112.859C375.82 113.203 376.477 113.375 377.227 113.375C378.367 113.375 379.289 113.133 379.992 112.648C380.695 112.164 381.203 111.477 381.516 110.586C381.828 109.695 381.961 108.648 381.914 107.445V105.594C381.945 104.562 381.875 103.656 381.703 102.875C381.531 102.078 381.258 101.414 380.883 100.883C380.523 100.352 380.039 99.9531 379.43 99.6875C378.836 99.4062 378.117 99.2656 377.273 99.2656C376.539 99.2656 375.891 99.4375 375.328 99.7812C374.766 100.125 374.297 100.609 373.922 101.234C373.547 101.844 373.258 102.57 373.055 103.414C372.867 104.242 372.773 105.148 372.773 106.133ZM401.203 99.0547V119H393.305V93.6406H400.711L401.203 99.0547ZM400.266 105.453L398.414 105.5C398.414 103.562 398.648 101.836 399.117 100.32C399.586 98.7891 400.25 97.4922 401.109 96.4297C401.969 95.3672 402.992 94.5625 404.18 94.0156C405.383 93.4531 406.719 93.1719 408.188 93.1719C409.359 93.1719 410.43 93.3438 411.398 93.6875C412.383 94.0312 413.227 94.5859 413.93 95.3516C414.648 96.1172 415.195 97.1328 415.57 98.3984C415.961 99.6484 416.156 101.195 416.156 103.039V119H408.211V103.016C408.211 102 408.07 101.227 407.789 100.695C407.508 100.148 407.102 99.7734 406.57 99.5703C406.039 99.3672 405.391 99.2656 404.625 99.2656C403.812 99.2656 403.125 99.4219 402.562 99.7344C402 100.047 401.547 100.484 401.203 101.047C400.875 101.594 400.633 102.242 400.477 102.992C400.336 103.742 400.266 104.562 400.266 105.453Z" fill="black"/>
<path d="M1134 0H1348C1356.28 0 1363 6.71573 1363 15V148C1363 156.284 1356.28 163 1348 163H1134V0Z" fill="#0D59F2"/>
<path d="M1248.5 51.6667C1257.07 51.6667 1264.74 52.9907 1270.29 55.1784C1273.06 56.2717 1275.33 57.5902 1276.91 59.0895C1278.49 60.591 1279.42 62.3052 1279.42 64.1667C1279.42 66.0281 1278.49 67.7423 1276.91 69.2438C1275.33 70.7432 1273.06 72.0616 1270.29 73.1549C1264.74 75.3426 1257.07 76.6666 1248.5 76.6667C1239.93 76.6667 1232.26 75.3427 1226.71 73.1549C1223.94 72.0616 1221.67 70.7432 1220.09 69.2438C1218.51 67.7423 1217.58 66.0281 1217.58 64.1667C1217.58 62.3052 1218.51 60.591 1220.09 59.0895C1221.67 57.5901 1223.94 56.2717 1226.71 55.1784C1232.26 52.9906 1239.93 51.6667 1248.5 51.6667ZM1248.5 55.3337C1242.07 55.3337 1235.28 56.2867 1230.11 57.9147C1227.52 58.7295 1225.37 59.7039 1223.88 60.7917C1222.37 61.8873 1221.63 63.0283 1221.63 64.1667C1221.63 65.305 1222.37 66.446 1223.88 67.5417C1225.37 68.6295 1227.52 69.6039 1230.11 70.4186C1235.28 72.0466 1242.07 72.9997 1248.5 72.9997C1254.93 72.9996 1261.72 72.0466 1266.89 70.4186C1269.48 69.6038 1271.63 68.6296 1273.12 67.5417C1274.63 66.446 1275.38 65.305 1275.38 64.1667C1275.38 63.0283 1274.63 61.8873 1273.12 60.7917C1271.63 59.7037 1269.48 58.7296 1266.89 57.9147C1261.72 56.2868 1254.93 55.3337 1248.5 55.3337Z" fill="white" stroke="white"/>
<path d="M1277.4 62.3333C1277.91 62.3333 1278.42 62.5126 1278.8 62.848C1279.19 63.1851 1279.42 63.6575 1279.42 64.1663V74.8333C1279.42 76.6948 1278.49 78.409 1276.91 79.9105C1275.33 81.4099 1273.06 82.7283 1270.29 83.8216C1264.74 86.0093 1257.07 87.3333 1248.5 87.3333C1239.93 87.3333 1232.26 86.0094 1226.71 83.8216C1223.94 82.7283 1221.67 81.4099 1220.09 79.9105C1218.51 78.409 1217.58 76.6948 1217.58 74.8333V64.1663C1217.58 63.6574 1217.81 63.1851 1218.2 62.848C1218.58 62.5128 1219.09 62.3334 1219.6 62.3333C1220.12 62.3333 1220.63 62.5126 1221.01 62.848C1221.39 63.1851 1221.63 63.6574 1221.63 64.1663V74.8333C1221.63 75.9717 1222.37 77.1127 1223.88 78.2083C1225.37 79.2961 1227.52 80.2705 1230.11 81.0853C1235.28 82.7133 1242.07 83.6663 1248.5 83.6663C1254.93 83.6663 1261.72 82.7132 1266.89 81.0853C1269.48 80.2704 1271.63 79.2963 1273.12 78.2083C1274.63 77.1127 1275.38 75.9717 1275.38 74.8333V64.1663C1275.38 63.6575 1275.61 63.1851 1275.99 62.848C1276.37 62.5126 1276.88 62.3333 1277.4 62.3333Z" fill="white" stroke="white"/>
<path d="M1277.4 73C1277.91 73 1278.42 73.1793 1278.8 73.5146C1279.19 73.8518 1279.42 74.3242 1279.42 74.833V86.833C1279.42 88.6945 1278.49 90.4086 1276.91 91.9102C1275.33 93.4096 1273.06 94.7289 1270.29 95.8223C1264.74 98.0099 1257.07 99.333 1248.5 99.333C1239.93 99.333 1232.26 98.01 1226.71 95.8223C1223.94 94.7289 1221.67 93.4096 1220.09 91.9102C1218.51 90.4087 1217.58 88.6944 1217.58 86.833V74.833L1217.59 74.6445C1217.64 74.2084 1217.86 73.8097 1218.2 73.5146C1218.58 73.1795 1219.09 73.0001 1219.6 73C1220.12 73 1220.63 73.1793 1221.01 73.5146C1221.39 73.8518 1221.63 74.3241 1221.63 74.833V86.833C1221.63 87.9713 1222.37 89.1123 1223.88 90.208C1225.37 91.2959 1227.52 92.2711 1230.11 93.0859C1235.28 94.7139 1242.07 95.667 1248.5 95.667C1254.93 95.667 1261.72 94.7139 1266.89 93.0859C1269.48 92.2711 1271.63 91.296 1273.12 90.208C1274.63 89.1124 1275.38 87.9713 1275.38 86.833V74.833C1275.38 74.3242 1275.61 73.8518 1275.99 73.5146C1276.37 73.1793 1276.88 73 1277.4 73Z" fill="white" stroke="white"/>
<path d="M1277.4 85C1277.91 85 1278.42 85.1793 1278.8 85.5146C1279.19 85.8518 1279.42 86.3242 1279.42 86.833V98.833C1279.42 100.694 1278.49 102.409 1276.91 103.91C1275.33 105.41 1273.06 106.729 1270.29 107.822C1264.74 110.01 1257.07 111.333 1248.5 111.333C1239.93 111.333 1232.26 110.01 1226.71 107.822C1223.94 106.729 1221.67 105.41 1220.09 103.91C1218.51 102.409 1217.58 100.694 1217.58 98.833V86.833L1217.59 86.6445C1217.64 86.2084 1217.86 85.8097 1218.2 85.5146C1218.58 85.1795 1219.09 85.0001 1219.6 85C1220.12 85 1220.63 85.1793 1221.01 85.5146C1221.39 85.8518 1221.63 86.3241 1221.63 86.833V98.833C1221.63 99.9713 1222.37 101.112 1223.88 102.208C1225.37 103.296 1227.52 104.271 1230.11 105.086C1235.28 106.714 1242.07 107.667 1248.5 107.667C1254.93 107.667 1261.72 106.714 1266.89 105.086C1269.48 104.271 1271.63 103.296 1273.12 102.208C1274.63 101.112 1275.38 99.9713 1275.38 98.833V86.833C1275.38 86.3242 1275.61 85.8518 1275.99 85.5146C1276.37 85.1793 1276.88 85 1277.4 85Z" fill="white" stroke="white"/>
</svg>
